<svg xmlns="http://www.w3.org/2000/svg" xml:space="preserve" width="7.11111in" height="7.11111in" version="1.1" style="shape-rendering:geometricPrecision; text-rendering:geometricPrecision; image-rendering:optimizeQuality; fill-rule:evenodd; clip-rule:evenodd" viewBox="0 0 7111 7111" xmlns:xlink="http://www.w3.org/1999/xlink">
 <defs>
  <style type="text/css">
   
    .str0 {stroke:black;stroke-width:250;stroke-linecap:round;stroke-linejoin:round}
    .fil0 {fill:none}
   
  </style>
 </defs>
 <g id="Layer_x0020_1">
  <metadata id="CorelCorpID_0Corel-Layer"></metadata>
  <rect class="fil0 str0" x="125" y="1239" width="2287" height="5381" id="id_101" style="stroke: rgb(255, 255, 255);"></rect>
  <rect class="fil0 str0" x="125" y="392" width="2287" height="847" id="id_102" style="stroke: rgb(255, 255, 255);"></rect>
  <rect class="fil0 str0" x="2412" y="1239" width="2287" height="5381" id="id_103" style="stroke: rgb(255, 255, 255);"></rect>
  <rect class="fil0 str0" x="2412" y="392" width="2287" height="847" id="id_104" style="stroke: rgb(255, 255, 255);"></rect>
  <rect class="fil0 str0" x="4699" y="1239" width="2287" height="5381" id="id_105" style="stroke: rgb(255, 255, 255);"></rect>
  <rect class="fil0 str0" x="4699" y="392" width="2287" height="847" id="id_106" style="stroke: rgb(255, 255, 255);"></rect>
  <line class="fil0 str0" x1="623" y1="815" x2="1914" y2="815" id="id_107" style="stroke: rgb(255, 255, 255);"></line>
  <line class="fil0 str0" x1="2910" y1="815" x2="4201" y2="815" id="id_108" style="stroke: rgb(255, 255, 255);"></line>
  <line class="fil0 str0" x1="5197" y1="815" x2="6488" y2="815" id="id_109" style="stroke: rgb(255, 255, 255);"></line>
  <rect class="fil0 str0" x="657" y="1857" width="1222" height="1222" id="id_110" style="stroke: rgb(255, 255, 255);"></rect>
  <rect class="fil0 str0" x="657" y="4274" width="1222" height="1222" id="id_111" style="stroke: rgb(255, 255, 255);"></rect>
  <rect class="fil0 str0" x="5231" y="2512" width="1222" height="1222" id="id_112" style="stroke: rgb(255, 255, 255);"></rect>
  <polyline class="fil0 str0" points="1057,2492 1183,2617 1480,2320 " id="id_113" style="stroke: rgb(255, 255, 255);"></polyline>
  <polyline class="fil0 str0" points="1057,4909 1183,5034 1480,4737 " id="id_114" style="stroke: rgb(255, 255, 255);"></polyline>
  <polyline class="fil0 str0" points="5631,3147 5757,3272 6054,2975 " id="id_115" style="stroke: rgb(255, 255, 255);"></polyline>
  <g id="_601019192">
   <rect class="fil0 str0" transform="matrix(0.965926 -0.258819 0.258819 0.965926 2807.1 3497.02)" width="1222" height="1222" id="id_116" style="stroke: rgb(255, 255, 255);"></rect>
   <g>
    <line class="fil0 str0" x1="3266" y1="3800" x2="3742" y2="3672" id="id_117" style="stroke: rgb(255, 255, 255);"></line>
    <line class="fil0 str0" x1="3369" y1="4186" x2="3845" y2="4058" id="id_118" style="stroke: rgb(255, 255, 255);"></line>
   </g>
  </g>
 </g>
</svg>